<svg xmlns="http://www.w3.org/2000/svg" aria-hidden="true" height="300" width="600"><rect width="600" height="300" fill="#ffffff"/><text x="16" y="26" font-family="Arial" font-size="15" font-weight="bold" fill="#1F2937">30-year fixed mortgage rate · weekly</text><text x="16" y="290" font-family="Arial" font-size="10" fill="#6B7280">Freddie Mac Primary Mortgage Market Survey · as of 07/09/2026</text><defs></defs><rect fill="transparent" height="300" width="600" x="0" y="0"></rect><g style="cursor:crosshair;touch-action:none" transform="translate(40,40)"><rect fill="transparent" height="220" width="520" x="0" y="0"></rect><g class="chart-grid"><defs><linearGradient id="grid-rows-fade-_R_1b_-gradient" x1="0%" x2="100%" y1="0%" y2="0%"><stop offset="0%" style="stop-color:white;stop-opacity:0"></stop><stop offset="10%" style="stop-color:white;stop-opacity:1"></stop><stop offset="90%" style="stop-color:white;stop-opacity:1"></stop><stop offset="100%" style="stop-color:white;stop-opacity:0"></stop></linearGradient><mask id="grid-rows-fade-_R_1b_"><rect fill="url(#grid-rows-fade-_R_1b_-gradient)" height="220" width="520" x="0" y="0"></rect></mask></defs><g mask="url(#grid-rows-fade-_R_1b_)"><g class="visx-group visx-rows" transform="translate(0, 0)"><line class="visx-line" x1="0" y1="220" x2="520" y2="220" fill="transparent" shape-rendering="crispEdges" stroke="#EAECEF" stroke-width="1" stroke-dasharray="4,4" stroke-opacity="1"></line><line class="visx-line" x1="0" y1="180" x2="520" y2="180" fill="transparent" shape-rendering="crispEdges" stroke="#EAECEF" stroke-width="1" stroke-dasharray="4,4" stroke-opacity="1"></line><line class="visx-line" x1="0" y1="140" x2="520" y2="140" fill="transparent" shape-rendering="crispEdges" stroke="#EAECEF" stroke-width="1" stroke-dasharray="4,4" stroke-opacity="1"></line><line class="visx-line" x1="0" y1="100.00000000000001" x2="520" y2="100.00000000000001" fill="transparent" shape-rendering="crispEdges" stroke="#EAECEF" stroke-width="1" stroke-dasharray="4,4" stroke-opacity="1"></line><line class="visx-line" x1="0" y1="59.99999999999999" x2="520" y2="59.99999999999999" fill="transparent" shape-rendering="crispEdges" stroke="#EAECEF" stroke-width="1" stroke-dasharray="4,4" stroke-opacity="1"></line><line class="visx-line" x1="0" y1="20.000000000000007" x2="520" y2="20.000000000000007" fill="transparent" shape-rendering="crispEdges" stroke="#EAECEF" stroke-width="1" stroke-dasharray="4,4" stroke-opacity="1"></line></g></g></g><defs><linearGradient id="area-gradient-value-_R_1j_" x1="0%" x2="0%" y1="0%" y2="100%"><stop offset="0%" style="stop-color:#3F51B5;stop-opacity:0.18"></stop><stop offset="100%" style="stop-color:#3F51B5;stop-opacity:0"></stop></linearGradient></defs><g opacity="1"><path class="visx-area-closed" d="M0,43.5C3.27,39.833,6.541,36.167,9.811,33.5C13.082,30.833,16.352,27.5,19.623,27.5C22.893,27.5,26.164,28.5,29.434,29.5C32.704,30.5,35.975,30.833,39.245,33.5C42.516,36.167,45.786,46.833,49.057,51.5C52.327,56.167,55.597,61.5,58.868,61.5C62.138,61.5,65.409,61.5,68.679,61.5C71.95,61.5,75.22,62.833,78.491,65.5C81.761,68.167,85.031,70.5,88.302,77.5C91.572,84.5,94.843,99.5,98.113,107.5C101.384,115.5,104.654,125.5,107.925,125.5C111.195,125.5,114.465,120.167,117.736,117.5C121.006,114.833,124.277,109.5,127.547,109.5C130.818,109.5,134.088,115.167,137.358,117.5C140.629,119.833,143.899,119.833,147.17,123.5C150.44,127.167,153.711,136.833,156.981,139.5C160.252,142.167,163.522,143.5,166.792,143.5C170.063,143.5,173.333,135.833,176.604,133.5C179.874,131.167,183.145,130.833,186.415,129.5C189.686,128.167,192.956,125.5,196.226,125.5C199.03,125.5,201.833,129.5,204.636,131.5C208.374,134.167,212.111,139.5,215.849,139.5C219.119,139.5,222.39,133.5,225.66,133.5C228.931,133.5,232.201,134.167,235.472,135.5C238.275,136.643,241.078,139.632,243.881,141.5C247.152,143.679,250.422,147.5,253.693,147.5C257.43,147.5,261.168,145.5,264.906,145.5C268.176,145.5,271.447,165.5,274.717,165.5C277.987,165.5,281.258,160.833,284.528,159.5C287.799,158.167,291.069,158.167,294.34,157.5C297.61,156.833,300.881,155.5,304.151,155.5C307.421,155.5,310.692,156.833,313.962,159.5C317.233,162.167,320.503,171.833,323.774,175.5C327.044,179.167,330.314,181.5,333.585,181.5C336.855,181.5,340.126,180.167,343.396,177.5C346.667,174.833,349.937,162.833,353.208,155.5C356.478,148.167,359.748,142.5,363.019,133.5C366.289,124.5,369.56,109.5,372.83,101.5C376.101,93.5,379.371,85.5,382.642,85.5C385.912,85.5,389.182,98.167,392.453,103.5C395.723,108.833,398.994,112.833,402.264,117.5C405.535,122.167,408.805,131.5,412.075,131.5C415.346,131.5,418.616,122.167,421.887,117.5C425.157,112.833,428.428,103.5,431.698,103.5C434.969,103.5,438.239,105.5,441.509,105.5C444.78,105.5,448.05,78.167,451.321,75.5C454.591,72.833,457.862,71.5,461.132,71.5C464.403,71.5,467.673,81.5,470.943,81.5C474.214,81.5,477.484,73.5,480.755,73.5C484.025,73.5,487.296,83.5,490.566,83.5C493.836,83.5,497.107,79.5,500.377,79.5C503.648,79.5,506.918,91.5,510.189,91.5C513.459,91.5,516.73,85.5,520,79.5L520,220C516.73,220,513.459,220,510.189,220C506.918,220,503.648,220,500.377,220C497.107,220,493.836,220,490.566,220C487.296,220,484.025,220,480.755,220C477.484,220,474.214,220,470.943,220C467.673,220,464.403,220,461.132,220C457.862,220,454.591,220,451.321,220C448.05,220,444.78,220,441.509,220C438.239,220,434.969,220,431.698,220C428.428,220,425.157,220,421.887,220C418.616,220,415.346,220,412.075,220C408.805,220,405.535,220,402.264,220C398.994,220,395.723,220,392.453,220C389.182,220,385.912,220,382.642,220C379.371,220,376.101,220,372.83,220C369.56,220,366.289,220,363.019,220C359.748,220,356.478,220,353.208,220C349.937,220,346.667,220,343.396,220C340.126,220,336.855,220,333.585,220C330.314,220,327.044,220,323.774,220C320.503,220,317.233,220,313.962,220C310.692,220,307.421,220,304.151,220C300.881,220,297.61,220,294.34,220C291.069,220,287.799,220,284.528,220C281.258,220,277.987,220,274.717,220C271.447,220,268.176,220,264.906,220C261.168,220,257.43,220,253.693,220C250.422,220,247.152,220,243.881,220C241.078,220,238.275,220,235.472,220C232.201,220,228.931,220,225.66,220C222.39,220,219.119,220,215.849,220C212.111,220,208.374,220,204.636,220C201.833,220,199.03,220,196.226,220C192.956,220,189.686,220,186.415,220C183.145,220,179.874,220,176.604,220C173.333,220,170.063,220,166.792,220C163.522,220,160.252,220,156.981,220C153.711,220,150.44,220,147.17,220C143.899,220,140.629,220,137.358,220C134.088,220,130.818,220,127.547,220C124.277,220,121.006,220,117.736,220C114.465,220,111.195,220,107.925,220C104.654,220,101.384,220,98.113,220C94.843,220,91.572,220,88.302,220C85.031,220,81.761,220,78.491,220C75.22,220,71.95,220,68.679,220C65.409,220,62.138,220,58.868,220C55.597,220,52.327,220,49.057,220C45.786,220,42.516,220,39.245,220C35.975,220,32.704,220,29.434,220C26.164,220,22.893,220,19.623,220C16.352,220,13.082,220,9.811,220C6.541,220,3.27,220,0,220Z" fill="url(#area-gradient-value-_R_1j_)"></path><path class="visx-linepath" d="M0,43.5C3.27,39.833,6.541,36.167,9.811,33.5C13.082,30.833,16.352,27.5,19.623,27.5C22.893,27.5,26.164,28.5,29.434,29.5C32.704,30.5,35.975,30.833,39.245,33.5C42.516,36.167,45.786,46.833,49.057,51.5C52.327,56.167,55.597,61.5,58.868,61.5C62.138,61.5,65.409,61.5,68.679,61.5C71.95,61.5,75.22,62.833,78.491,65.5C81.761,68.167,85.031,70.5,88.302,77.5C91.572,84.5,94.843,99.5,98.113,107.5C101.384,115.5,104.654,125.5,107.925,125.5C111.195,125.5,114.465,120.167,117.736,117.5C121.006,114.833,124.277,109.5,127.547,109.5C130.818,109.5,134.088,115.167,137.358,117.5C140.629,119.833,143.899,119.833,147.17,123.5C150.44,127.167,153.711,136.833,156.981,139.5C160.252,142.167,163.522,143.5,166.792,143.5C170.063,143.5,173.333,135.833,176.604,133.5C179.874,131.167,183.145,130.833,186.415,129.5C189.686,128.167,192.956,125.5,196.226,125.5C199.03,125.5,201.833,129.5,204.636,131.5C208.374,134.167,212.111,139.5,215.849,139.5C219.119,139.5,222.39,133.5,225.66,133.5C228.931,133.5,232.201,134.167,235.472,135.5C238.275,136.643,241.078,139.632,243.881,141.5C247.152,143.679,250.422,147.5,253.693,147.5C257.43,147.5,261.168,145.5,264.906,145.5C268.176,145.5,271.447,165.5,274.717,165.5C277.987,165.5,281.258,160.833,284.528,159.5C287.799,158.167,291.069,158.167,294.34,157.5C297.61,156.833,300.881,155.5,304.151,155.5C307.421,155.5,310.692,156.833,313.962,159.5C317.233,162.167,320.503,171.833,323.774,175.5C327.044,179.167,330.314,181.5,333.585,181.5C336.855,181.5,340.126,180.167,343.396,177.5C346.667,174.833,349.937,162.833,353.208,155.5C356.478,148.167,359.748,142.5,363.019,133.5C366.289,124.5,369.56,109.5,372.83,101.5C376.101,93.5,379.371,85.5,382.642,85.5C385.912,85.5,389.182,98.167,392.453,103.5C395.723,108.833,398.994,112.833,402.264,117.5C405.535,122.167,408.805,131.5,412.075,131.5C415.346,131.5,418.616,122.167,421.887,117.5C425.157,112.833,428.428,103.5,431.698,103.5C434.969,103.5,438.239,105.5,441.509,105.5C444.78,105.5,448.05,78.167,451.321,75.5C454.591,72.833,457.862,71.5,461.132,71.5C464.403,71.5,467.673,81.5,470.943,81.5C474.214,81.5,477.484,73.5,480.755,73.5C484.025,73.5,487.296,83.5,490.566,83.5C493.836,83.5,497.107,79.5,500.377,79.5C503.648,79.5,506.918,91.5,510.189,91.5C513.459,91.5,516.73,85.5,520,79.5" fill="transparent" stroke-linecap="round" stroke="#3F51B5" stroke-width="2.5"></path></g></g><circle cx="40" cy="83.5" r="4" fill="#3F51B5" stroke="#ffffff" stroke-width="2"/><circle cx="560" cy="119.5" r="4" fill="#3F51B5" stroke="#ffffff" stroke-width="2"/><text x="48" y="101.5" font-family="Arial" font-size="12" font-weight="bold" fill="#1F2937">6.67%</text><text x="552" y="111.5" font-family="Arial" font-size="12" font-weight="bold" fill="#1F2937" text-anchor="end">6.49%</text><text x="40" y="276" font-family="Arial" font-size="10" fill="#6B7280">Jul ’25</text><text x="560" y="276" font-family="Arial" font-size="10" fill="#6B7280" text-anchor="end">Jul ’26</text></svg>