<svg xmlns="http://www.w3.org/2000/svg" aria-hidden="true" height="300" width="600"><rect width="600" height="300" fill="#ffffff"/><text x="16" y="26" font-family="Arial" font-size="15" font-weight="bold" fill="#1F2937">Homes sold by month · Lee County</text><text x="16" y="290" font-family="Arial" font-size="10" fill="#6B7280">Lee County Property Appraiser recorded sales · line marks the 12-month average · as of 05/30/2026</text><defs></defs><rect fill="transparent" height="300" width="600" x="0" y="0"></rect><g style="cursor:crosshair;touch-action:none" transform="translate(40,40)"><rect fill="transparent" height="220" width="520" x="0" y="0"></rect><g class="chart-grid"><defs><linearGradient id="grid-rows-fade-_R_1b_-gradient" x1="0%" x2="100%" y1="0%" y2="0%"><stop offset="0%" style="stop-color:white;stop-opacity:0"></stop><stop offset="10%" style="stop-color:white;stop-opacity:1"></stop><stop offset="90%" style="stop-color:white;stop-opacity:1"></stop><stop offset="100%" style="stop-color:white;stop-opacity:0"></stop></linearGradient><mask id="grid-rows-fade-_R_1b_"><rect fill="url(#grid-rows-fade-_R_1b_-gradient)" height="220" width="520" x="0" y="0"></rect></mask></defs><g mask="url(#grid-rows-fade-_R_1b_)"><g class="visx-group visx-rows" transform="translate(0, 0)"><line class="visx-line" x1="0" y1="220" x2="520" y2="220" fill="transparent" shape-rendering="crispEdges" stroke="#EAECEF" stroke-width="1" stroke-dasharray="4,4" stroke-opacity="1"></line><line class="visx-line" x1="0" y1="171.11111111111111" x2="520" y2="171.11111111111111" fill="transparent" shape-rendering="crispEdges" stroke="#EAECEF" stroke-width="1" stroke-dasharray="4,4" stroke-opacity="1"></line><line class="visx-line" x1="0" y1="122.22222222222223" x2="520" y2="122.22222222222223" fill="transparent" shape-rendering="crispEdges" stroke="#EAECEF" stroke-width="1" stroke-dasharray="4,4" stroke-opacity="1"></line><line class="visx-line" x1="0" y1="73.33333333333334" x2="520" y2="73.33333333333334" fill="transparent" shape-rendering="crispEdges" stroke="#EAECEF" stroke-width="1" stroke-dasharray="4,4" stroke-opacity="1"></line><line class="visx-line" x1="0" y1="24.444444444444457" x2="520" y2="24.444444444444457" fill="transparent" shape-rendering="crispEdges" stroke="#EAECEF" stroke-width="1" stroke-dasharray="4,4" stroke-opacity="1"></line></g></g></g><g class="series-bar"><rect fill="#0891B2" height="184.7511111111111" rx="0" ry="0" width="41.6" x="-20.8" y="35.2488888888889"></rect><rect fill="#0891B2" height="146.52" rx="0" ry="0" width="41.6" x="26.472727272727273" y="73.47999999999999"></rect><rect fill="#0891B2" height="145.83555555555554" rx="0" ry="0" width="41.6" x="73.74545454545455" y="74.16444444444446"></rect><rect fill="#0891B2" height="133.32" rx="0" ry="0" width="41.6" x="121.01818181818182" y="86.68"></rect><rect fill="#0891B2" height="150.13777777777779" rx="0" ry="0" width="41.6" x="168.29090909090908" y="69.86222222222223"></rect><rect fill="#0891B2" height="132.44" rx="0" ry="0" width="41.6" x="215.56363636363633" y="87.56"></rect><rect fill="#0891B2" height="122.80888888888887" rx="0" ry="0" width="41.6" x="262.8363636363636" y="97.19111111111113"></rect><rect fill="#0891B2" height="152.09333333333333" rx="0" ry="0" width="41.6" x="310.10909090909087" y="67.90666666666667"></rect><rect fill="#0891B2" height="127.20888888888888" rx="0" ry="0" width="41.6" x="357.3818181818182" y="92.79111111111112"></rect><rect fill="#0891B2" height="149.79555555555555" rx="0" ry="0" width="41.6" x="404.6545454545455" y="70.20444444444445"></rect><rect fill="#0891B2" height="188.17333333333332" rx="0" ry="0" width="41.6" x="451.9272727272727" y="31.82666666666668"></rect><rect fill="#0891B2" height="177.76000000000002" rx="0" ry="0" width="41.6" x="499.2" y="42.23999999999999"></rect></g><defs><linearGradient id="line-gradient-average-_R_2j_" gradientUnits="userSpaceOnUse" x1="0" x2="520" y1="0" y2="0"><stop offset="0%" style="stop-color:#6B7280;stop-opacity:0"></stop><stop offset="15%" style="stop-color:#6B7280;stop-opacity:1"></stop><stop offset="85%" style="stop-color:#6B7280;stop-opacity:1"></stop><stop offset="100%" style="stop-color:#6B7280;stop-opacity:0"></stop></linearGradient></defs><g opacity="1"><path d="M0,69.08C15.758,69.08,31.515,69.08,47.273,69.08C63.03,69.08,78.788,69.08,94.545,69.08C110.303,69.08,126.061,69.08,141.818,69.08C157.576,69.08,173.333,69.08,189.091,69.08C204.848,69.08,220.606,69.08,236.364,69.08C252.121,69.08,267.879,69.08,283.636,69.08C299.394,69.08,315.152,69.08,330.909,69.08C346.667,69.08,362.424,69.08,378.182,69.08C393.939,69.08,409.697,69.08,425.455,69.08C441.212,69.08,456.97,69.08,472.727,69.08C488.485,69.08,504.242,69.08,520,69.08" fill="none" stroke="url(#line-gradient-average-_R_2j_)" stroke-linecap="round" stroke-width="2"></path></g></g><text x="40" y="276" font-family="Arial" font-size="10" fill="#6B7280" text-anchor="middle">May</text><text x="87.27272727272728" y="276" font-family="Arial" font-size="10" fill="#6B7280" text-anchor="middle">Jun</text><text x="134.54545454545456" y="276" font-family="Arial" font-size="10" fill="#6B7280" text-anchor="middle">Jul</text><text x="181.8181818181818" y="276" font-family="Arial" font-size="10" fill="#6B7280" text-anchor="middle">Aug</text><text x="229.0909090909091" y="276" font-family="Arial" font-size="10" fill="#6B7280" text-anchor="middle">Sep</text><text x="276.3636363636364" y="276" font-family="Arial" font-size="10" fill="#6B7280" text-anchor="middle">Oct</text><text x="323.6363636363636" y="276" font-family="Arial" font-size="10" fill="#6B7280" text-anchor="middle">Nov</text><text x="370.9090909090909" y="276" font-family="Arial" font-size="10" fill="#6B7280" text-anchor="middle">Dec</text><text x="418.1818181818182" y="276" font-family="Arial" font-size="10" fill="#6B7280" text-anchor="middle">Jan</text><text x="465.4545454545455" y="276" font-family="Arial" font-size="10" fill="#6B7280" text-anchor="middle">Feb</text><text x="512.7272727272727" y="276" font-family="Arial" font-size="10" fill="#6B7280" text-anchor="middle">Mar</text><text x="560" y="276" font-family="Arial" font-size="10" fill="#6B7280" text-anchor="middle">Apr</text></svg>