<svg xmlns="http://www.w3.org/2000/svg" aria-hidden="true" height="300" width="600"><rect width="600" height="300" fill="#ffffff"/><text x="16" y="26" font-family="Arial" font-size="15" font-weight="bold" fill="#1F2937">Median asking price · ZIP 33914 · Cape Coral</text><text x="16" y="290" font-family="Arial" font-size="10" fill="#6B7280">Realtor.com residential listings · as of 06/30/2026</text><defs></defs><rect fill="transparent" height="300" width="600" x="0" y="0"></rect><g style="cursor:crosshair;touch-action:none" transform="translate(40,40)"><rect fill="transparent" height="220" width="520" x="0" y="0"></rect><g class="chart-grid"><defs><linearGradient id="grid-rows-fade-_R_1b_-gradient" x1="0%" x2="100%" y1="0%" y2="0%"><stop offset="0%" style="stop-color:white;stop-opacity:0"></stop><stop offset="10%" style="stop-color:white;stop-opacity:1"></stop><stop offset="90%" style="stop-color:white;stop-opacity:1"></stop><stop offset="100%" style="stop-color:white;stop-opacity:0"></stop></linearGradient><mask id="grid-rows-fade-_R_1b_"><rect fill="url(#grid-rows-fade-_R_1b_-gradient)" height="220" width="520" x="0" y="0"></rect></mask></defs><g mask="url(#grid-rows-fade-_R_1b_)"><g class="visx-group visx-rows" transform="translate(0, 0)"><line class="visx-line" x1="0" y1="220" x2="520" y2="220" fill="transparent" shape-rendering="crispEdges" stroke="#EAECEF" stroke-width="1" stroke-dasharray="4,4" stroke-opacity="1"></line><line class="visx-line" x1="0" y1="188.57142857142858" x2="520" y2="188.57142857142858" fill="transparent" shape-rendering="crispEdges" stroke="#EAECEF" stroke-width="1" stroke-dasharray="4,4" stroke-opacity="1"></line><line class="visx-line" x1="0" y1="157.14285714285714" x2="520" y2="157.14285714285714" fill="transparent" shape-rendering="crispEdges" stroke="#EAECEF" stroke-width="1" stroke-dasharray="4,4" stroke-opacity="1"></line><line class="visx-line" x1="0" y1="125.71428571428571" x2="520" y2="125.71428571428571" fill="transparent" shape-rendering="crispEdges" stroke="#EAECEF" stroke-width="1" stroke-dasharray="4,4" stroke-opacity="1"></line><line class="visx-line" x1="0" y1="94.28571428571429" x2="520" y2="94.28571428571429" fill="transparent" shape-rendering="crispEdges" stroke="#EAECEF" stroke-width="1" stroke-dasharray="4,4" stroke-opacity="1"></line><line class="visx-line" x1="0" y1="62.857142857142854" x2="520" y2="62.857142857142854" fill="transparent" shape-rendering="crispEdges" stroke="#EAECEF" stroke-width="1" stroke-dasharray="4,4" stroke-opacity="1"></line><line class="visx-line" x1="0" y1="31.428571428571438" x2="520" y2="31.428571428571438" fill="transparent" shape-rendering="crispEdges" stroke="#EAECEF" stroke-width="1" stroke-dasharray="4,4" stroke-opacity="1"></line><line class="visx-line" x1="0" y1="0" x2="520" y2="0" fill="transparent" shape-rendering="crispEdges" stroke="#EAECEF" stroke-width="1" stroke-dasharray="4,4" stroke-opacity="1"></line></g></g></g><defs><linearGradient id="area-gradient-value-_R_1j_" x1="0%" x2="0%" y1="0%" y2="100%"><stop offset="0%" style="stop-color:#0891B2;stop-opacity:0.18"></stop><stop offset="100%" style="stop-color:#0891B2;stop-opacity:0"></stop></linearGradient></defs><g opacity="1"><path class="visx-area-closed" d="M0,26.93C24.528,25.791,49.057,24.652,73.585,24.652C98.931,24.652,124.277,25.411,149.623,26.93C174.969,28.449,200.314,31.689,225.66,37.145C248.553,42.072,271.447,56.945,294.34,56.945C319.686,56.945,345.031,55.452,370.377,55.452C394.906,55.452,419.434,82.259,443.962,102.673C469.308,123.768,494.654,152.349,520,180.93L520,220C494.654,220,469.308,220,443.962,220C419.434,220,394.906,220,370.377,220C345.031,220,319.686,220,294.34,220C271.447,220,248.553,220,225.66,220C200.314,220,174.969,220,149.623,220C124.277,220,98.931,220,73.585,220C49.057,220,24.528,220,0,220Z" fill="url(#area-gradient-value-_R_1j_)"></path><path class="visx-linepath" d="M0,26.93C24.528,25.791,49.057,24.652,73.585,24.652C98.931,24.652,124.277,25.411,149.623,26.93C174.969,28.449,200.314,31.689,225.66,37.145C248.553,42.072,271.447,56.945,294.34,56.945C319.686,56.945,345.031,55.452,370.377,55.452C394.906,55.452,419.434,82.259,443.962,102.673C469.308,123.768,494.654,152.349,520,180.93" fill="transparent" stroke-linecap="round" stroke="#0891B2" stroke-width="2.5"></path></g></g><circle cx="40" cy="66.93" r="4" fill="#0891B2" stroke="#ffffff" stroke-width="2"/><circle cx="560" cy="220.93" r="4" fill="#0891B2" stroke="#ffffff" stroke-width="2"/><text x="48" y="84.93" font-family="Arial" font-size="12" font-weight="bold" fill="#1F2937">$599K</text><text x="552" y="238.93" font-family="Arial" font-size="12" font-weight="bold" fill="#1F2937" text-anchor="end">$550K</text><text x="40" y="276" font-family="Arial" font-size="10" fill="#6B7280">Nov ’25</text><text x="560" y="276" font-family="Arial" font-size="10" fill="#6B7280" text-anchor="end">Jun ’26</text></svg>