<svg xmlns="http://www.w3.org/2000/svg" width="600" height="268" viewBox="0 0 600 268"><rect width="600" height="268" fill="#12100B"/><text x="40" y="28" font-family="Arial" font-size="15" font-weight="bold" fill="#F5E6C8">Luxury Listings · Naples / Collier</text><path d="M 150.00 71.00 A 78 78 0 0 1 222.82 176.95" fill="none" stroke="#B8860B" stroke-width="30"/><path d="M 222.82 176.95 A 78 78 0 0 1 88.56 197.05" fill="none" stroke="#fdc863" stroke-width="30"/><path d="M 88.56 197.05 A 78 78 0 0 1 95.20 93.49" fill="none" stroke="#8e5e00" stroke-width="30"/><path d="M 95.20 93.49 A 78 78 0 0 1 150.00 71.00" fill="none" stroke="#98b14b" stroke-width="30"/><text x="150" y="147" text-anchor="middle" font-family="Arial" font-size="26" font-weight="bold" fill="#F5E6C8">1k</text><text x="150" y="167" text-anchor="middle" font-family="Arial" font-size="11" fill="#A89768">listings</text><rect x="300" y="54" width="12" height="12" rx="2" fill="#B8860B"/><text x="320" y="65" font-family="Arial" font-size="12" fill="#E8D9B5">$2M–$3M</text><text x="576" y="65" text-anchor="end" font-family="Arial" font-size="12" font-weight="bold" fill="#F5E6C8">378</text><text x="576" y="78" text-anchor="end" font-family="Arial" font-size="10" fill="#A89768">30.8%</text><rect x="300" y="80" width="12" height="12" rx="2" fill="#fdc863"/><text x="320" y="91" font-family="Arial" font-size="12" fill="#E8D9B5">$3M–$5M</text><text x="576" y="91" text-anchor="end" font-family="Arial" font-size="12" font-weight="bold" fill="#F5E6C8">412</text><text x="576" y="104" text-anchor="end" font-family="Arial" font-size="10" fill="#A89768">33.6%</text><rect x="300" y="106" width="12" height="12" rx="2" fill="#8e5e00"/><text x="320" y="117" font-family="Arial" font-size="12" fill="#E8D9B5">$5M–$10M</text><text x="576" y="117" text-anchor="end" font-family="Arial" font-size="12" font-weight="bold" fill="#F5E6C8">284</text><text x="576" y="130" text-anchor="end" font-family="Arial" font-size="10" fill="#A89768">23.2%</text><rect x="300" y="132" width="12" height="12" rx="2" fill="#98b14b"/><text x="320" y="143" font-family="Arial" font-size="12" fill="#E8D9B5">$10M+</text><text x="576" y="143" text-anchor="end" font-family="Arial" font-size="12" font-weight="bold" fill="#F5E6C8">152</text><text x="576" y="156" text-anchor="end" font-family="Arial" font-size="10" fill="#A89768">12.4%</text><text x="40" y="256" font-family="Arial" font-size="10" fill="#A89768">SWFL Data Gulf, realtor.com price-histogram aggregate · listings, not homes · as of 07/11/2026</text></svg>