<svg xmlns="http://www.w3.org/2000/svg" aria-hidden="true" height="300" width="600"><rect width="600" height="300" fill="#ffffff"/><text x="16" y="26" font-family="Arial" font-size="15" font-weight="bold" fill="#1F2937">Homes for sale · Lee County</text><text x="16" y="290" font-family="Arial" font-size="10" fill="#6B7280">Realtor.com via FRED · as of 06/30/2026</text><defs></defs><rect fill="transparent" height="300" width="600" x="0" y="0"></rect><g style="cursor:crosshair;touch-action:none" transform="translate(40,40)"><rect fill="transparent" height="220" width="520" x="0" y="0"></rect><g class="chart-grid"><defs><linearGradient id="grid-rows-fade-_R_1b_-gradient" x1="0%" x2="100%" y1="0%" y2="0%"><stop offset="0%" style="stop-color:white;stop-opacity:0"></stop><stop offset="10%" style="stop-color:white;stop-opacity:1"></stop><stop offset="90%" style="stop-color:white;stop-opacity:1"></stop><stop offset="100%" style="stop-color:white;stop-opacity:0"></stop></linearGradient><mask id="grid-rows-fade-_R_1b_"><rect fill="url(#grid-rows-fade-_R_1b_-gradient)" height="220" width="520" x="0" y="0"></rect></mask></defs><g mask="url(#grid-rows-fade-_R_1b_)"><g class="visx-group visx-rows" transform="translate(0, 0)"><line class="visx-line" x1="0" y1="220" x2="520" y2="220" fill="transparent" shape-rendering="crispEdges" stroke="#EAECEF" stroke-width="1" stroke-dasharray="4,4" stroke-opacity="1"></line><line class="visx-line" x1="0" y1="188.57142857142858" x2="520" y2="188.57142857142858" fill="transparent" shape-rendering="crispEdges" stroke="#EAECEF" stroke-width="1" stroke-dasharray="4,4" stroke-opacity="1"></line><line class="visx-line" x1="0" y1="157.14285714285714" x2="520" y2="157.14285714285714" fill="transparent" shape-rendering="crispEdges" stroke="#EAECEF" stroke-width="1" stroke-dasharray="4,4" stroke-opacity="1"></line><line class="visx-line" x1="0" y1="125.71428571428571" x2="520" y2="125.71428571428571" fill="transparent" shape-rendering="crispEdges" stroke="#EAECEF" stroke-width="1" stroke-dasharray="4,4" stroke-opacity="1"></line><line class="visx-line" x1="0" y1="94.28571428571429" x2="520" y2="94.28571428571429" fill="transparent" shape-rendering="crispEdges" stroke="#EAECEF" stroke-width="1" stroke-dasharray="4,4" stroke-opacity="1"></line><line class="visx-line" x1="0" y1="62.857142857142854" x2="520" y2="62.857142857142854" fill="transparent" shape-rendering="crispEdges" stroke="#EAECEF" stroke-width="1" stroke-dasharray="4,4" stroke-opacity="1"></line><line class="visx-line" x1="0" y1="31.428571428571438" x2="520" y2="31.428571428571438" fill="transparent" shape-rendering="crispEdges" stroke="#EAECEF" stroke-width="1" stroke-dasharray="4,4" stroke-opacity="1"></line><line class="visx-line" x1="0" y1="0" x2="520" y2="0" fill="transparent" shape-rendering="crispEdges" stroke="#EAECEF" stroke-width="1" stroke-dasharray="4,4" stroke-opacity="1"></line></g></g></g><defs><linearGradient id="area-gradient-value-_R_1j_" x1="0%" x2="0%" y1="0%" y2="100%"><stop offset="0%" style="stop-color:#0891B2;stop-opacity:0.18"></stop><stop offset="100%" style="stop-color:#0891B2;stop-opacity:0"></stop></linearGradient></defs><g opacity="1"><path class="visx-area-closed" d="M0,37.95C14.247,46.072,28.493,54.194,42.74,71.83C57.461,90.054,72.183,129.187,86.904,146.819C101.626,164.45,116.347,177.619,131.068,177.619C145.315,177.619,159.562,164.741,173.808,154.299C188.53,143.508,203.251,123.971,217.973,113.379C232.219,103.128,246.466,97.811,260.712,91.19C275.434,84.349,290.155,79.76,304.877,73.15C319.598,66.54,334.32,51.527,349.041,51.527C362.338,51.527,375.635,59.519,388.932,66.236C403.653,73.672,418.374,83.487,433.096,95.213C447.342,106.561,461.589,120.615,475.836,135.064C490.557,149.995,505.279,166.793,520,183.59L520,220C505.279,220,490.557,220,475.836,220C461.589,220,447.342,220,433.096,220C418.374,220,403.653,220,388.932,220C375.635,220,362.338,220,349.041,220C334.32,220,319.598,220,304.877,220C290.155,220,275.434,220,260.712,220C246.466,220,232.219,220,217.973,220C203.251,220,188.53,220,173.808,220C159.562,220,145.315,220,131.068,220C116.347,220,101.626,220,86.904,220C72.183,220,57.461,220,42.74,220C28.493,220,14.247,220,0,220Z" fill="url(#area-gradient-value-_R_1j_)"></path><path class="visx-linepath" d="M0,37.95C14.247,46.072,28.493,54.194,42.74,71.83C57.461,90.054,72.183,129.187,86.904,146.819C101.626,164.45,116.347,177.619,131.068,177.619C145.315,177.619,159.562,164.741,173.808,154.299C188.53,143.508,203.251,123.971,217.973,113.379C232.219,103.128,246.466,97.811,260.712,91.19C275.434,84.349,290.155,79.76,304.877,73.15C319.598,66.54,334.32,51.527,349.041,51.527C362.338,51.527,375.635,59.519,388.932,66.236C403.653,73.672,418.374,83.487,433.096,95.213C447.342,106.561,461.589,120.615,475.836,135.064C490.557,149.995,505.279,166.793,520,183.59" fill="transparent" stroke-linecap="round" stroke="#0891B2" stroke-width="2.5"></path></g></g><circle cx="40" cy="77.95" r="4" fill="#0891B2" stroke="#ffffff" stroke-width="2"/><circle cx="560" cy="223.59" r="4" fill="#0891B2" stroke="#ffffff" stroke-width="2"/><text x="48" y="69.95" font-family="Arial" font-size="12" font-weight="bold" fill="#1F2937">12,892</text><text x="552" y="241.59" font-family="Arial" font-size="12" font-weight="bold" fill="#1F2937" text-anchor="end">10,575</text><text x="40" y="276" font-family="Arial" font-size="10" fill="#6B7280">Jun ’25</text><text x="560" y="276" font-family="Arial" font-size="10" fill="#6B7280" text-anchor="end">Jun ’26</text></svg>