<svg xmlns="http://www.w3.org/2000/svg" aria-hidden="true" height="300" width="600"><rect width="600" height="300" fill="#ffffff"/><text x="16" y="26" font-family="Arial" font-size="15" font-weight="bold" fill="#1F2937">Median asking price · six biggest Lee County ZIPs</text><text x="16" y="290" font-family="Arial" font-size="10" fill="#6B7280">Realtor.com residential listings · line marks the six-ZIP average · as of 06/30/2026</text><defs></defs><rect fill="transparent" height="300" width="600" x="0" y="0"></rect><g style="cursor:crosshair;touch-action:none" transform="translate(40,40)"><rect fill="transparent" height="220" width="520" x="0" y="0"></rect><g class="chart-grid"><defs><linearGradient id="grid-rows-fade-_R_1b_-gradient" x1="0%" x2="100%" y1="0%" y2="0%"><stop offset="0%" style="stop-color:white;stop-opacity:0"></stop><stop offset="10%" style="stop-color:white;stop-opacity:1"></stop><stop offset="90%" style="stop-color:white;stop-opacity:1"></stop><stop offset="100%" style="stop-color:white;stop-opacity:0"></stop></linearGradient><mask id="grid-rows-fade-_R_1b_"><rect fill="url(#grid-rows-fade-_R_1b_-gradient)" height="220" width="520" x="0" y="0"></rect></mask></defs><g mask="url(#grid-rows-fade-_R_1b_)"><g class="visx-group visx-rows" transform="translate(0, 0)"><line class="visx-line" x1="0" y1="220" x2="520" y2="220" fill="transparent" shape-rendering="crispEdges" stroke="#EAECEF" stroke-width="1" stroke-dasharray="4,4" stroke-opacity="1"></line><line class="visx-line" x1="0" y1="186.15384615384616" x2="520" y2="186.15384615384616" fill="transparent" shape-rendering="crispEdges" stroke="#EAECEF" stroke-width="1" stroke-dasharray="4,4" stroke-opacity="1"></line><line class="visx-line" x1="0" y1="152.3076923076923" x2="520" y2="152.3076923076923" fill="transparent" shape-rendering="crispEdges" stroke="#EAECEF" stroke-width="1" stroke-dasharray="4,4" stroke-opacity="1"></line><line class="visx-line" x1="0" y1="118.46153846153845" x2="520" y2="118.46153846153845" fill="transparent" shape-rendering="crispEdges" stroke="#EAECEF" stroke-width="1" stroke-dasharray="4,4" stroke-opacity="1"></line><line class="visx-line" x1="0" y1="84.61538461538461" x2="520" y2="84.61538461538461" fill="transparent" shape-rendering="crispEdges" stroke="#EAECEF" stroke-width="1" stroke-dasharray="4,4" stroke-opacity="1"></line><line class="visx-line" x1="0" y1="50.76923076923076" x2="520" y2="50.76923076923076" fill="transparent" shape-rendering="crispEdges" stroke="#EAECEF" stroke-width="1" stroke-dasharray="4,4" stroke-opacity="1"></line><line class="visx-line" x1="0" y1="16.923076923076913" x2="520" y2="16.923076923076913" fill="transparent" shape-rendering="crispEdges" stroke="#EAECEF" stroke-width="1" stroke-dasharray="4,4" stroke-opacity="1"></line></g></g></g><g class="series-bar"><rect fill="#0891B2" height="186.15384615384616" rx="0" ry="0" width="91.52" x="-45.76" y="33.84615384615385"></rect><rect fill="#0891B2" height="177.69230769230768" rx="0" ry="0" width="91.52" x="58.24" y="42.30769230769231"></rect><rect fill="#0891B2" height="141.64615384615385" rx="0" ry="0" width="91.52" x="162.24" y="78.35384615384615"></rect><rect fill="#0891B2" height="138.76855384615385" rx="0" ry="0" width="91.52" x="266.24" y="81.23144615384615"></rect><rect fill="#0891B2" height="125.19692307692307" rx="0" ry="0" width="91.52" x="370.24" y="94.80307692307693"></rect><rect fill="#0891B2" height="110.33846153846153" rx="0" ry="0" width="91.52" x="474.24" y="109.66153846153847"></rect></g><defs><linearGradient id="line-gradient-average-_R_2j_" gradientUnits="userSpaceOnUse" x1="0" x2="520" y1="0" y2="0"><stop offset="0%" style="stop-color:#6B7280;stop-opacity:0"></stop><stop offset="15%" style="stop-color:#6B7280;stop-opacity:1"></stop><stop offset="85%" style="stop-color:#6B7280;stop-opacity:1"></stop><stop offset="100%" style="stop-color:#6B7280;stop-opacity:0"></stop></linearGradient></defs><g opacity="1"><path d="M0,73.367C34.667,73.367,69.333,73.367,104,73.367C138.667,73.367,173.333,73.367,208,73.367C242.667,73.367,277.333,73.367,312,73.367C346.667,73.367,381.333,73.367,416,73.367C450.667,73.367,485.333,73.367,520,73.367" fill="none" stroke="url(#line-gradient-average-_R_2j_)" stroke-linecap="round" stroke-width="2"></path></g></g><text x="40" y="276" font-family="Arial" font-size="10" fill="#6B7280" text-anchor="middle">33914</text><text x="40" y="67.84615384615384" font-family="Arial" font-size="11" font-weight="bold" fill="#1F2937" text-anchor="middle">$550K</text><text x="144" y="276" font-family="Arial" font-size="10" fill="#6B7280" text-anchor="middle">34135</text><text x="144" y="76.3076923076923" font-family="Arial" font-size="11" font-weight="bold" fill="#1F2937" text-anchor="middle">$525K</text><text x="248" y="276" font-family="Arial" font-size="10" fill="#6B7280" text-anchor="middle">33904</text><text x="248" y="112.35384615384615" font-family="Arial" font-size="11" font-weight="bold" fill="#1F2937" text-anchor="middle">$419K</text><text x="352" y="276" font-family="Arial" font-size="10" fill="#6B7280" text-anchor="middle">33993</text><text x="352" y="115.23144615384615" font-family="Arial" font-size="11" font-weight="bold" fill="#1F2937" text-anchor="middle">$410K</text><text x="456" y="276" font-family="Arial" font-size="10" fill="#6B7280" text-anchor="middle">33908</text><text x="456" y="128.80307692307693" font-family="Arial" font-size="11" font-weight="bold" fill="#1F2937" text-anchor="middle">$370K</text><text x="560" y="276" font-family="Arial" font-size="10" fill="#6B7280" text-anchor="middle">33974</text><text x="560" y="143.66153846153847" font-family="Arial" font-size="11" font-weight="bold" fill="#1F2937" text-anchor="middle">$326K</text></svg>