<svg xmlns="http://www.w3.org/2000/svg" aria-hidden="true" height="300" width="600"><rect width="600" height="300" fill="#ffffff"/><text x="16" y="26" font-family="Arial" font-size="15" font-weight="bold" fill="#1F2937">Median asking price · Lee County</text><text x="16" y="290" font-family="Arial" font-size="10" fill="#6B7280">Realtor.com via FRED · as of 06/30/2026</text><defs></defs><rect fill="transparent" height="300" width="600" x="0" y="0"></rect><g style="cursor:crosshair;touch-action:none" transform="translate(40,40)"><rect fill="transparent" height="220" width="520" x="0" y="0"></rect><g class="chart-grid"><defs><linearGradient id="grid-rows-fade-_R_1b_-gradient" x1="0%" x2="100%" y1="0%" y2="0%"><stop offset="0%" style="stop-color:white;stop-opacity:0"></stop><stop offset="10%" style="stop-color:white;stop-opacity:1"></stop><stop offset="90%" style="stop-color:white;stop-opacity:1"></stop><stop offset="100%" style="stop-color:white;stop-opacity:0"></stop></linearGradient><mask id="grid-rows-fade-_R_1b_"><rect fill="url(#grid-rows-fade-_R_1b_-gradient)" height="220" width="520" x="0" y="0"></rect></mask></defs><g mask="url(#grid-rows-fade-_R_1b_)"><g class="visx-group visx-rows" transform="translate(0, 0)"><line class="visx-line" x1="0" y1="220" x2="520" y2="220" fill="transparent" shape-rendering="crispEdges" stroke="#EAECEF" stroke-width="1" stroke-dasharray="4,4" stroke-opacity="1"></line><line class="visx-line" x1="0" y1="165" x2="520" y2="165" fill="transparent" shape-rendering="crispEdges" stroke="#EAECEF" stroke-width="1" stroke-dasharray="4,4" stroke-opacity="1"></line><line class="visx-line" x1="0" y1="110" x2="520" y2="110" fill="transparent" shape-rendering="crispEdges" stroke="#EAECEF" stroke-width="1" stroke-dasharray="4,4" stroke-opacity="1"></line><line class="visx-line" x1="0" y1="55" x2="520" y2="55" fill="transparent" shape-rendering="crispEdges" stroke="#EAECEF" stroke-width="1" stroke-dasharray="4,4" stroke-opacity="1"></line><line class="visx-line" x1="0" y1="0" x2="520" y2="0" fill="transparent" shape-rendering="crispEdges" stroke="#EAECEF" stroke-width="1" stroke-dasharray="4,4" stroke-opacity="1"></line></g></g></g><defs><linearGradient id="area-gradient-value-_R_1j_" x1="0%" x2="0%" y1="0%" y2="100%"><stop offset="0%" style="stop-color:#0891B2;stop-opacity:0.18"></stop><stop offset="100%" style="stop-color:#0891B2;stop-opacity:0"></stop></linearGradient></defs><g opacity="1"><path class="visx-area-closed" d="M0,26.812C14.247,43.243,28.493,59.673,42.74,77.627C57.461,96.179,72.183,122.044,86.904,136.538C101.626,151.031,116.347,164.587,131.068,164.587C145.315,164.587,159.562,164.587,173.808,164.587C188.53,164.587,203.251,164.587,217.973,164.587C232.219,164.587,246.466,164.407,260.712,164.318C275.434,164.226,290.155,164.043,304.877,164.043C319.598,164.043,334.32,164.587,349.041,164.587C362.338,164.587,375.635,164.587,388.932,164.587C403.653,164.587,418.374,165.389,433.096,166.238C447.342,167.058,461.589,167.338,475.836,169.538C490.557,171.811,505.279,176.587,520,181.362L520,220C505.279,220,490.557,220,475.836,220C461.589,220,447.342,220,433.096,220C418.374,220,403.653,220,388.932,220C375.635,220,362.338,220,349.041,220C334.32,220,319.598,220,304.877,220C290.155,220,275.434,220,260.712,220C246.466,220,232.219,220,217.973,220C203.251,220,188.53,220,173.808,220C159.562,220,145.315,220,131.068,220C116.347,220,101.626,220,86.904,220C72.183,220,57.461,220,42.74,220C28.493,220,14.247,220,0,220Z" fill="url(#area-gradient-value-_R_1j_)"></path><path class="visx-linepath" d="M0,26.812C14.247,43.243,28.493,59.673,42.74,77.627C57.461,96.179,72.183,122.044,86.904,136.538C101.626,151.031,116.347,164.587,131.068,164.587C145.315,164.587,159.562,164.587,173.808,164.587C188.53,164.587,203.251,164.587,217.973,164.587C232.219,164.587,246.466,164.407,260.712,164.318C275.434,164.226,290.155,164.043,304.877,164.043C319.598,164.043,334.32,164.587,349.041,164.587C362.338,164.587,375.635,164.587,388.932,164.587C403.653,164.587,418.374,165.389,433.096,166.238C447.342,167.058,461.589,167.338,475.836,169.538C490.557,171.811,505.279,176.587,520,181.362" fill="transparent" stroke-linecap="round" stroke="#0891B2" stroke-width="2.5"></path></g></g><circle cx="40" cy="66.812" r="4" fill="#0891B2" stroke="#ffffff" stroke-width="2"/><circle cx="560" cy="221.362" r="4" fill="#0891B2" stroke="#ffffff" stroke-width="2"/><text x="48" y="58.812" font-family="Arial" font-size="12" font-weight="bold" fill="#1F2937">$425K</text><text x="552" y="239.362" font-family="Arial" font-size="12" font-weight="bold" fill="#1F2937" text-anchor="end">$397K</text><text x="40" y="276" font-family="Arial" font-size="10" fill="#6B7280">Jun ’25</text><text x="560" y="276" font-family="Arial" font-size="10" fill="#6B7280" text-anchor="end">Jun ’26</text></svg>