<svg xmlns="http://www.w3.org/2000/svg" aria-hidden="true" height="300" width="600"><rect width="600" height="300" fill="#ffffff"/><text x="16" y="26" font-family="Arial" font-size="15" font-weight="bold" fill="#1F2937">Typical asking rent · Fort Myers</text><text x="16" y="290" font-family="Arial" font-size="10" fill="#6B7280">Zillow Observed Rent Index · as of 05/31/2026</text><defs></defs><rect fill="transparent" height="300" width="600" x="0" y="0"></rect><g style="cursor:crosshair;touch-action:none" transform="translate(40,40)"><rect fill="transparent" height="220" width="520" x="0" y="0"></rect><g class="chart-grid"><defs><linearGradient id="grid-rows-fade-_R_1b_-gradient" x1="0%" x2="100%" y1="0%" y2="0%"><stop offset="0%" style="stop-color:white;stop-opacity:0"></stop><stop offset="10%" style="stop-color:white;stop-opacity:1"></stop><stop offset="90%" style="stop-color:white;stop-opacity:1"></stop><stop offset="100%" style="stop-color:white;stop-opacity:0"></stop></linearGradient><mask id="grid-rows-fade-_R_1b_"><rect fill="url(#grid-rows-fade-_R_1b_-gradient)" height="220" width="520" x="0" y="0"></rect></mask></defs><g mask="url(#grid-rows-fade-_R_1b_)"><g class="visx-group visx-rows" transform="translate(0, 0)"><line class="visx-line" x1="0" y1="220" x2="520" y2="220" fill="transparent" shape-rendering="crispEdges" stroke="#EAECEF" stroke-width="1" stroke-dasharray="4,4" stroke-opacity="1"></line><line class="visx-line" x1="0" y1="171.11111111111111" x2="520" y2="171.11111111111111" fill="transparent" shape-rendering="crispEdges" stroke="#EAECEF" stroke-width="1" stroke-dasharray="4,4" stroke-opacity="1"></line><line class="visx-line" x1="0" y1="122.22222222222223" x2="520" y2="122.22222222222223" fill="transparent" shape-rendering="crispEdges" stroke="#EAECEF" stroke-width="1" stroke-dasharray="4,4" stroke-opacity="1"></line><line class="visx-line" x1="0" y1="73.33333333333334" x2="520" y2="73.33333333333334" fill="transparent" shape-rendering="crispEdges" stroke="#EAECEF" stroke-width="1" stroke-dasharray="4,4" stroke-opacity="1"></line><line class="visx-line" x1="0" y1="24.444444444444457" x2="520" y2="24.444444444444457" fill="transparent" shape-rendering="crispEdges" stroke="#EAECEF" stroke-width="1" stroke-dasharray="4,4" stroke-opacity="1"></line></g></g></g><defs><linearGradient id="area-gradient-value-_R_1j_" x1="0%" x2="0%" y1="0%" y2="100%"><stop offset="0%" style="stop-color:#2E7D32;stop-opacity:0.18"></stop><stop offset="100%" style="stop-color:#2E7D32;stop-opacity:0"></stop></linearGradient></defs><g opacity="1"><path class="visx-area-closed" d="M0,27.5C13.569,31.016,27.138,34.532,40.707,44.611C53.838,54.365,66.97,81.435,80.101,86.167C93.67,91.056,107.239,88.611,120.808,93.5C134.377,98.389,147.946,124.354,161.515,127.722C174.646,130.981,187.778,131.007,200.909,132.611C214.478,134.268,228.047,137.5,241.616,137.5C254.747,137.5,267.879,135.87,281.01,132.611C294.579,129.243,308.148,115.5,321.717,115.5C335.286,115.5,348.855,128.644,362.424,135.056C374.68,140.847,386.936,144.979,399.192,152.167C412.761,160.125,426.33,181.5,439.899,181.5C453.03,181.5,466.162,162.656,479.293,154.611C492.862,146.298,506.431,139.454,520,132.611L520,220C506.431,220,492.862,220,479.293,220C466.162,220,453.03,220,439.899,220C426.33,220,412.761,220,399.192,220C386.936,220,374.68,220,362.424,220C348.855,220,335.286,220,321.717,220C308.148,220,294.579,220,281.01,220C267.879,220,254.747,220,241.616,220C228.047,220,214.478,220,200.909,220C187.778,220,174.646,220,161.515,220C147.946,220,134.377,220,120.808,220C107.239,220,93.67,220,80.101,220C66.97,220,53.838,220,40.707,220C27.138,220,13.569,220,0,220Z" fill="url(#area-gradient-value-_R_1j_)"></path><path class="visx-linepath" d="M0,27.5C13.569,31.016,27.138,34.532,40.707,44.611C53.838,54.365,66.97,81.435,80.101,86.167C93.67,91.056,107.239,88.611,120.808,93.5C134.377,98.389,147.946,124.354,161.515,127.722C174.646,130.981,187.778,131.007,200.909,132.611C214.478,134.268,228.047,137.5,241.616,137.5C254.747,137.5,267.879,135.87,281.01,132.611C294.579,129.243,308.148,115.5,321.717,115.5C335.286,115.5,348.855,128.644,362.424,135.056C374.68,140.847,386.936,144.979,399.192,152.167C412.761,160.125,426.33,181.5,439.899,181.5C453.03,181.5,466.162,162.656,479.293,154.611C492.862,146.298,506.431,139.454,520,132.611" fill="transparent" stroke-linecap="round" stroke="#2E7D32" stroke-width="2.5"></path></g></g><circle cx="40" cy="67.5" r="4" fill="#2E7D32" stroke="#ffffff" stroke-width="2"/><circle cx="560" cy="172.611" r="4" fill="#2E7D32" stroke="#ffffff" stroke-width="2"/><text x="48" y="59.5" font-family="Arial" font-size="12" font-weight="bold" fill="#1F2937">$1,850</text><text x="552" y="164.611" font-family="Arial" font-size="12" font-weight="bold" fill="#1F2937" text-anchor="end">$1,807</text><text x="40" y="276" font-family="Arial" font-size="10" fill="#6B7280">Apr ’25</text><text x="560" y="276" font-family="Arial" font-size="10" fill="#6B7280" text-anchor="end">May ’26</text></svg>