<svg xmlns="http://www.w3.org/2000/svg" aria-hidden="true" height="300" width="600"><rect width="600" height="300" fill="#ffffff"/><text x="16" y="26" font-family="Arial" font-size="15" font-weight="bold" fill="#1F2937">Top-tier home value · Lee County</text><text x="16" y="290" font-family="Arial" font-size="10" fill="#6B7280">Zillow Home Value Index, top tier · as of 05/31/2026</text><defs></defs><rect fill="transparent" height="300" width="600" x="0" y="0"></rect><g style="cursor:crosshair;touch-action:none" transform="translate(40,40)"><rect fill="transparent" height="220" width="520" x="0" y="0"></rect><g class="chart-grid"><defs><linearGradient id="grid-rows-fade-_R_1b_-gradient" x1="0%" x2="100%" y1="0%" y2="0%"><stop offset="0%" style="stop-color:white;stop-opacity:0"></stop><stop offset="10%" style="stop-color:white;stop-opacity:1"></stop><stop offset="90%" style="stop-color:white;stop-opacity:1"></stop><stop offset="100%" style="stop-color:white;stop-opacity:0"></stop></linearGradient><mask id="grid-rows-fade-_R_1b_"><rect fill="url(#grid-rows-fade-_R_1b_-gradient)" height="220" width="520" x="0" y="0"></rect></mask></defs><g mask="url(#grid-rows-fade-_R_1b_)"><g class="visx-group visx-rows" transform="translate(0, 0)"><line class="visx-line" x1="0" y1="220" x2="520" y2="220" fill="transparent" shape-rendering="crispEdges" stroke="#EAECEF" stroke-width="1" stroke-dasharray="4,4" stroke-opacity="1"></line><line class="visx-line" x1="0" y1="165" x2="520" y2="165" fill="transparent" shape-rendering="crispEdges" stroke="#EAECEF" stroke-width="1" stroke-dasharray="4,4" stroke-opacity="1"></line><line class="visx-line" x1="0" y1="110" x2="520" y2="110" fill="transparent" shape-rendering="crispEdges" stroke="#EAECEF" stroke-width="1" stroke-dasharray="4,4" stroke-opacity="1"></line><line class="visx-line" x1="0" y1="55" x2="520" y2="55" fill="transparent" shape-rendering="crispEdges" stroke="#EAECEF" stroke-width="1" stroke-dasharray="4,4" stroke-opacity="1"></line><line class="visx-line" x1="0" y1="0" x2="520" y2="0" fill="transparent" shape-rendering="crispEdges" stroke="#EAECEF" stroke-width="1" stroke-dasharray="4,4" stroke-opacity="1"></line></g></g></g><defs><linearGradient id="area-gradient-value-_R_1j_" x1="0%" x2="0%" y1="0%" y2="100%"><stop offset="0%" style="stop-color:#B8860B;stop-opacity:0.18"></stop><stop offset="100%" style="stop-color:#B8860B;stop-opacity:0"></stop></linearGradient></defs><g opacity="1"><path class="visx-area-closed" d="M0,27.105C14.247,38.02,28.493,48.936,42.74,59.893C57.461,71.215,72.183,82.955,86.904,93.946C101.626,104.937,116.347,117.888,131.068,125.841C145.315,133.536,159.562,137.84,173.808,141.4C188.53,145.08,203.251,144.683,217.973,147.23C232.219,149.696,246.466,153.77,260.712,156.324C275.434,158.964,290.155,161.002,304.877,162.713C319.598,164.423,334.32,166.464,349.041,166.587C362.338,166.699,375.635,166.643,388.932,166.755C403.653,166.879,418.374,167.191,433.096,168.061C447.342,168.904,461.589,170.134,475.836,172.299C490.557,174.536,505.279,177.979,520,181.421L520,220C505.279,220,490.557,220,475.836,220C461.589,220,447.342,220,433.096,220C418.374,220,403.653,220,388.932,220C375.635,220,362.338,220,349.041,220C334.32,220,319.598,220,304.877,220C290.155,220,275.434,220,260.712,220C246.466,220,232.219,220,217.973,220C203.251,220,188.53,220,173.808,220C159.562,220,145.315,220,131.068,220C116.347,220,101.626,220,86.904,220C72.183,220,57.461,220,42.74,220C28.493,220,14.247,220,0,220Z" fill="url(#area-gradient-value-_R_1j_)"></path><path class="visx-linepath" d="M0,27.105C14.247,38.02,28.493,48.936,42.74,59.893C57.461,71.215,72.183,82.955,86.904,93.946C101.626,104.937,116.347,117.888,131.068,125.841C145.315,133.536,159.562,137.84,173.808,141.4C188.53,145.08,203.251,144.683,217.973,147.23C232.219,149.696,246.466,153.77,260.712,156.324C275.434,158.964,290.155,161.002,304.877,162.713C319.598,164.423,334.32,166.464,349.041,166.587C362.338,166.699,375.635,166.643,388.932,166.755C403.653,166.879,418.374,167.191,433.096,168.061C447.342,168.904,461.589,170.134,475.836,172.299C490.557,174.536,505.279,177.979,520,181.421" fill="transparent" stroke-linecap="round" stroke="#B8860B" stroke-width="2.5"></path></g></g><circle cx="40" cy="67.105" r="4" fill="#B8860B" stroke="#ffffff" stroke-width="2"/><circle cx="560" cy="221.421" r="4" fill="#B8860B" stroke="#ffffff" stroke-width="2"/><text x="48" y="59.105000000000004" font-family="Arial" font-size="12" font-weight="bold" fill="#1F2937">$802K</text><text x="552" y="239.421" font-family="Arial" font-size="12" font-weight="bold" fill="#1F2937" text-anchor="end">$746K</text><text x="40" y="276" font-family="Arial" font-size="10" fill="#6B7280">May ’25</text><text x="560" y="276" font-family="Arial" font-size="10" fill="#6B7280" text-anchor="end">May ’26</text></svg>