<svg xmlns="http://www.w3.org/2000/svg" aria-hidden="true" height="300" width="600"><rect width="600" height="300" fill="#ffffff"/><text x="16" y="26" font-family="Arial" font-size="15" font-weight="bold" fill="#1F2937">Median recorded sale price · Lee County</text><text x="16" y="290" font-family="Arial" font-size="10" fill="#6B7280">Lee County Property Appraiser recorded sales · as of 05/30/2026</text><defs></defs><rect fill="transparent" height="300" width="600" x="0" y="0"></rect><g style="cursor:crosshair;touch-action:none" transform="translate(40,40)"><rect fill="transparent" height="220" width="520" x="0" y="0"></rect><g class="chart-grid"><defs><linearGradient id="grid-rows-fade-_R_1b_-gradient" x1="0%" x2="100%" y1="0%" y2="0%"><stop offset="0%" style="stop-color:white;stop-opacity:0"></stop><stop offset="10%" style="stop-color:white;stop-opacity:1"></stop><stop offset="90%" style="stop-color:white;stop-opacity:1"></stop><stop offset="100%" style="stop-color:white;stop-opacity:0"></stop></linearGradient><mask id="grid-rows-fade-_R_1b_"><rect fill="url(#grid-rows-fade-_R_1b_-gradient)" height="220" width="520" x="0" y="0"></rect></mask></defs><g mask="url(#grid-rows-fade-_R_1b_)"><g class="visx-group visx-rows" transform="translate(0, 0)"><line class="visx-line" x1="0" y1="220" x2="520" y2="220" fill="transparent" shape-rendering="crispEdges" stroke="#EAECEF" stroke-width="1" stroke-dasharray="4,4" stroke-opacity="1"></line><line class="visx-line" x1="0" y1="183.33333333333334" x2="520" y2="183.33333333333334" fill="transparent" shape-rendering="crispEdges" stroke="#EAECEF" stroke-width="1" stroke-dasharray="4,4" stroke-opacity="1"></line><line class="visx-line" x1="0" y1="146.66666666666669" x2="520" y2="146.66666666666669" fill="transparent" shape-rendering="crispEdges" stroke="#EAECEF" stroke-width="1" stroke-dasharray="4,4" stroke-opacity="1"></line><line class="visx-line" x1="0" y1="110" x2="520" y2="110" fill="transparent" shape-rendering="crispEdges" stroke="#EAECEF" stroke-width="1" stroke-dasharray="4,4" stroke-opacity="1"></line><line class="visx-line" x1="0" y1="73.33333333333334" x2="520" y2="73.33333333333334" fill="transparent" shape-rendering="crispEdges" stroke="#EAECEF" stroke-width="1" stroke-dasharray="4,4" stroke-opacity="1"></line><line class="visx-line" x1="0" y1="36.66666666666666" x2="520" y2="36.66666666666666" fill="transparent" shape-rendering="crispEdges" stroke="#EAECEF" stroke-width="1" stroke-dasharray="4,4" stroke-opacity="1"></line><line class="visx-line" x1="0" y1="0" x2="520" y2="0" fill="transparent" shape-rendering="crispEdges" stroke="#EAECEF" stroke-width="1" stroke-dasharray="4,4" stroke-opacity="1"></line></g></g></g><defs><linearGradient id="area-gradient-value-_R_1j_" x1="0%" x2="0%" y1="0%" y2="100%"><stop offset="0%" style="stop-color:#7B3FC7;stop-opacity:0.18"></stop><stop offset="100%" style="stop-color:#7B3FC7;stop-opacity:0"></stop></linearGradient></defs><g opacity="1"><path class="visx-area-closed" d="M0,27.275C16.04,73.107,32.08,118.938,48.119,118.938C63.642,118.938,79.164,118.938,94.687,118.938C110.726,118.938,126.766,148.308,142.806,148.308C158.846,148.308,174.886,78.605,190.925,78.605C206.448,78.605,221.97,102.188,237.493,118.938C253.532,136.247,269.572,181.455,285.612,181.455C301.134,181.455,316.657,110.982,332.179,110.982C348.219,110.982,364.259,142.772,380.299,142.772C396.338,142.772,412.378,118.938,428.418,118.938C442.905,118.938,457.393,137.272,471.881,137.272C487.92,137.272,503.96,118.022,520,98.772L520,220C503.96,220,487.92,220,471.881,220C457.393,220,442.905,220,428.418,220C412.378,220,396.338,220,380.299,220C364.259,220,348.219,220,332.179,220C316.657,220,301.134,220,285.612,220C269.572,220,253.532,220,237.493,220C221.97,220,206.448,220,190.925,220C174.886,220,158.846,220,142.806,220C126.766,220,110.726,220,94.687,220C79.164,220,63.642,220,48.119,220C32.08,220,16.04,220,0,220Z" fill="url(#area-gradient-value-_R_1j_)"></path><path class="visx-linepath" d="M0,27.275C16.04,73.107,32.08,118.938,48.119,118.938C63.642,118.938,79.164,118.938,94.687,118.938C110.726,118.938,126.766,148.308,142.806,148.308C158.846,148.308,174.886,78.605,190.925,78.605C206.448,78.605,221.97,102.188,237.493,118.938C253.532,136.247,269.572,181.455,285.612,181.455C301.134,181.455,316.657,110.982,332.179,110.982C348.219,110.982,364.259,142.772,380.299,142.772C396.338,142.772,412.378,118.938,428.418,118.938C442.905,118.938,457.393,137.272,471.881,137.272C487.92,137.272,503.96,118.022,520,98.772" fill="transparent" stroke-linecap="round" stroke="#7B3FC7" stroke-width="2.5"></path></g></g><circle cx="40" cy="67.275" r="4" fill="#7B3FC7" stroke="#ffffff" stroke-width="2"/><circle cx="560" cy="138.772" r="4" fill="#7B3FC7" stroke="#ffffff" stroke-width="2"/><text x="48" y="59.275000000000006" font-family="Arial" font-size="12" font-weight="bold" fill="#1F2937">$350K</text><text x="552" y="130.772" font-family="Arial" font-size="12" font-weight="bold" fill="#1F2937" text-anchor="end">$331K</text><text x="40" y="276" font-family="Arial" font-size="10" fill="#6B7280">May ’25</text><text x="560" y="276" font-family="Arial" font-size="10" fill="#6B7280" text-anchor="end">Apr ’26</text></svg>